<svg xmlns="http://www.w3.org/2000/svg" viewBox="0 0 36.89 36.89"><defs><style>.cls-1{fill:#3f495d;}.cls-2{fill:#fff;}</style></defs><title>Facebook</title><g id="Layer_2" data-name="Layer 2"><g id="Layer_4" data-name="Layer 4"><g id="Socials"><g id="Facebook"><path class="cls-1" d="M36.89,34.58a2.3,2.3,0,0,1-2.31,2.31H2.31A2.3,2.3,0,0,1,0,34.58V2.31A2.3,2.3,0,0,1,2.31,0H34.58a2.3,2.3,0,0,1,2.31,2.31Z"/><path id="f" class="cls-2" d="M25.36,36.89V23.06H30l1.16-5.77H25.36V15c0-2.31,1.16-3.46,3.46-3.46h2.31V5.76H26.51c-4.23,0-6.91,3.33-6.91,8.07v3.46H15v5.77H19.6V36.89Z"/></g></g></g></g></svg>