<svg xmlns="http://www.w3.org/2000/svg" viewBox="0 0 44.27 35.96"><defs><style>.cls-1{fill:#3f495d;}</style></defs><title>Asset 4</title><g id="Layer_2" data-name="Layer 2"><g id="Layer_4" data-name="Layer 4"><g id="Socials"><g id="Twitter"><path class="cls-1" d="M44.27,4.25a17.63,17.63,0,0,1-5.22,1.43,9.07,9.07,0,0,0,4-5,18.33,18.33,0,0,1-5.77,2.21A9.08,9.08,0,0,0,21.56,9.08a9.45,9.45,0,0,0,.24,2.07A25.8,25.8,0,0,1,3.08,1.66,9.11,9.11,0,0,0,5.89,13.78a9.12,9.12,0,0,1-4.11-1.14v.11a9.1,9.1,0,0,0,7.28,8.91A9.38,9.38,0,0,1,6.67,22,8.85,8.85,0,0,1,5,21.81a9.1,9.1,0,0,0,8.48,6.31A18.22,18.22,0,0,1,2.17,32,19.31,19.31,0,0,1,0,31.87,25.68,25.68,0,0,0,13.92,36c16.7,0,25.84-13.84,25.84-25.84l0-1.17A18.32,18.32,0,0,0,44.27,4.25Z"/></g></g></g></g></svg>