<?xml version="1.0" encoding="utf-8"?>
<!-- Generator: Adobe Illustrator 22.0.1, SVG Export Plug-In . SVG Version: 6.00 Build 0)  -->
<svg version="1.1" id="Layer_1" xmlns="http://www.w3.org/2000/svg" xmlns:xlink="http://www.w3.org/1999/xlink" x="0px" y="0px"
	 viewBox="0 0 2661.2 2303.4" style="enable-background:new 0 0 2661.2 2303.4;" xml:space="preserve">
<style type="text/css">
	.st0{fill:#FFFFFF;}
	.st1{fill:#35495E;}
	.st2{fill:#41B782;}
</style>
<g>
	<polygon id="White_Background" class="st0" points="1633.6,0 1585.9,0 1294.4,517.7 1003,0 952.6,0 0,0 1330.6,2303.4 1386.9,2206 
		2604.9,97.5 2661.2,0 	"/>
	<g id="Right_Mountain">
		<path class="st1" d="M1294.4,1215.2c-1.1,0-2.2-0.2-3.2-0.7c-4-1.8-5.9-6.5-4.1-10.5l228.2-517.4c1-2.3,3-4,5.5-4.6
			c2.4-0.6,5,0,7,1.6l94,78.5L1920.6,424c1.8-2,4.5-3,7.2-2.6s5,2.2,6.1,4.6l180.3,403.7c1.8,4,0,8.8-4,10.6s-8.8,0-10.6-4
			l-175.2-392.4l-295.8,334.7c-2.9,3.2-7.8,3.6-11.1,0.8l-91.8-76.7l-223.9,507.7C1300.4,1213.4,1297.5,1215.2,1294.4,1215.2z"/>
		<polygon class="st1" points="1922.6,422.3 1552.1,710.8 1618.6,766.3 		"/>
		<path class="st1" d="M1211.1,1125.3c-1.6,0-3.3-0.5-4.7-1.5c-3.6-2.6-4.4-7.6-1.8-11.2l311.5-427.5c2.6-3.6,7.6-4.4,11.2-1.8
			c3.6,2.6,4.4,7.6,1.8,11.2L1217.6,1122C1216,1124.2,1213.6,1125.3,1211.1,1125.3z"/>
		<polygon class="st1" points="1492.9,742.1 1215.1,1122.6 1290.6,1199.9 		"/>
	</g>
	<g id="Bottom_Mountain">
		<path class="st1" d="M1088.9,1756c-1.4,0-2.8-0.4-4-1.1c-3.8-2.2-5.1-7.1-2.8-11l349.5-594.9c1.3-2.3,3.7-3.7,6.3-3.9
			c2.6-0.2,5.2,0.9,6.8,3l280.2,352.2c2.8,3.5,2.2,8.5-1.3,11.2c-3.5,2.8-8.5,2.2-11.2-1.3l-272.9-343.1L1095.9,1752
			C1094.3,1754.6,1091.6,1756,1088.9,1756z"/>
		
			<rect x="904" y="1351.7" transform="matrix(0.7399 -0.6727 0.6727 0.7399 -599.6719 1168.3816)" class="st1" width="614.3" height="16"/>
		<polygon class="st1" points="1436.2,1153.1 1104.2,1719.1 1326.1,2086.3 1690.5,1458.8 		"/>
	</g>
	<g id="Vue_Logo">
		<polygon class="st2" points="1406.6,0 1294.4,199.3 1182.2,0 808.7,0 1294.4,862.9 1780.2,0 		"/>
		<polygon class="st1" points="1406.6,0 1294.4,199.3 1182.2,0 1003,0 1294.4,517.7 1585.9,0 		"/>
	</g>
	<g id="Left_Mountain">
		<path class="st1" d="M1333.6,1256.4c-2.1,0-4.2-0.8-5.8-2.5L872.4,775.8l-107.3,400.5c-1.1,4.3-5.5,6.8-9.8,5.7
			c-4.3-1.1-6.8-5.5-5.7-9.8l111-414.3c0.7-2.8,2.9-5,5.8-5.7c2.8-0.7,5.8,0.1,7.8,2.2l465.2,488.4c3,3.2,2.9,8.3-0.3,11.3
			C1337.6,1255.7,1335.6,1256.4,1333.6,1256.4z"/>
		<path class="st1" d="M643,984.2c-2.1,0-4.2-0.8-5.8-2.5c-3.1-3.2-3-8.3,0.2-11.3l225.4-216.2c3.2-3.1,8.3-3,11.3,0.2
			c3.1,3.2,3,8.3-0.2,11.3L648.5,982C647,983.5,645,984.2,643,984.2z"/>
		<polygon class="st1" points="870.6,772.8 776.4,1118.5 1017.1,1533.3 1326.9,1249.8 		"/>
	</g>
	<polygon class="st2" points="1330.6,2303.4 0,0 952.6,0 952.6,130 225.2,130 1330.6,2043.6 2436,130 1633.6,130 1633.6,0 2661.2,0 
		2604.9,97.5 1386.9,2206 	"/>
</g>
</svg>
