<svg xmlns="http://www.w3.org/2000/svg" viewBox="0 0 2179.55 673.62"><defs><style>.cls-1{fill:#35495e;}.cls-2{fill:#fff;}</style></defs><title>Asset 9</title><g id="Layer_2" data-name="Layer 2"><g id="Mountains_2" data-name="Mountains 2"><path class="cls-1" d="M2.91,671.12,105.46,2.68,305.81,18.53,570.27,118.61H697.13A38.56,38.56,0,0,1,721,127l.12.1L853.16,259.64c6.42,4.62,95.75,43.21,121.21,51a9.61,9.61,0,0,0,2.8.43,9.51,9.51,0,0,0,4.31-1l153-76.5a20,20,0,0,1,9-2.15c.63,0,1.27,0,1.89.09l259.13,24.82a38.53,38.53,0,0,1,22.4,7.39l137.93,99,198.09-6.27,107.95,135,177.09,75,124.74,104.78Z"/><path class="cls-2" d="M107.58,5.35,305.26,21,569.81,121.11H697.13a36.25,36.25,0,0,1,22.29,7.83l132.1,132.59c6.26,4.88,98.26,44.2,122.12,51.49a12,12,0,0,0,9-.77l153-76.5a17.64,17.64,0,0,1,7.91-1.89,15.37,15.37,0,0,1,1.66.08l259.23,24.83a36.08,36.08,0,0,1,21.07,6.92l138.62,99.45,197.68-6.26L1869.3,493.41l177.33,75.09,119.2,100.12H5.83L107.58,5.35M103.34,0l-.71,4.59L.88,667.86,0,673.62H2179.55L2169,664.79,2049.85,564.67l-.58-.48-.69-.29-176.17-74.6L1765.64,355.76l-1.56-1.95-2.5.08-196,6.2-137.25-98.46a41,41,0,0,0-23.73-7.86L1145.6,229c-.7-.07-1.42-.1-2.13-.1a22.46,22.46,0,0,0-10.15,2.42l-153,76.5a6.94,6.94,0,0,1-5.26.45c-24.46-7.46-112.91-45.57-120.33-50.52L723,125.42l-.22-.23-.25-.19a41,41,0,0,0-25.36-8.89H570.72L307,16.32l-.67-.25-.71-.06L108,.37,103.34,0Z"/></g></g></svg>