<svg xmlns="http://www.w3.org/2000/svg" viewBox="0 0 1394.26 387.79"><defs><style>.cls-1{fill:#67a677;}.cls-2{fill:#fff;}</style></defs><title>Asset 6</title><g id="Layer_2" data-name="Layer 2"><g id="Mountains_2" data-name="Mountains 2"><path class="cls-1" d="M8.5,385.29a6,6,0,0,1-5.91-7L66.91,7.47a6,6,0,0,1,5.91-5h.42L197,11.18a6,6,0,0,1,1.49.29L368.05,68.21a1.13,1.13,0,0,0,.32.05h81.48a27.71,27.71,0,0,1,15.78,4.91l.13.08,85.1,75.55c3.45,2.11,38.73,15.77,63.2,24.21a43.3,43.3,0,0,0,31.67-1.32l77-34a52,52,0,0,1,21.14-4.47c1.46,0,2.95.07,4.41.19l157.49,13.34a27.78,27.78,0,0,1,14.81,4.34l88.43,56.1a1,1,0,0,0,.53.16l124.91-3.5a6,6,0,0,1,4.45,2l67.67,74.84a1.05,1.05,0,0,0,.39.27l113,42.32a5.68,5.68,0,0,1,1.47.8l67.93,50.45a6,6,0,0,1-3.58,10.82Z"/><path class="cls-2" d="M72.82,5h.25l123.8,8.66a3.64,3.64,0,0,1,.86.17L367.26,70.58a3.49,3.49,0,0,0,1.11.18h81.48a25.3,25.3,0,0,1,14.36,4.47l85.13,75.56c3.18,2.19,40.62,16.55,63.9,24.58a45.77,45.77,0,0,0,33.51-1.4l77-34a49.75,49.75,0,0,1,20.13-4.25c1.4,0,2.8.05,4.2.17l157.59,13.35a25.32,25.32,0,0,1,13.58,3.95l88.43,56.1a3.46,3.46,0,0,0,1.87.55h.1l124.71-3.5h.1a3.5,3.5,0,0,1,2.6,1.16l67.66,74.84a3.67,3.67,0,0,0,1.37.93l113,42.32a3.45,3.45,0,0,1,.86.47l67.92,50.45a3.5,3.5,0,0,1-2.09,6.31H8.5a3.5,3.5,0,0,1-3.45-4.1L69.37,7.9A3.5,3.5,0,0,1,72.82,5m0-5h0a8.48,8.48,0,0,0-8.37,7.05L.13,377.84a8.5,8.5,0,0,0,8.37,10H1385.76a8.5,8.5,0,0,0,5.07-15.32L1322.91,322a8.46,8.46,0,0,0-2.09-1.13l-112.68-42.2-67.42-74.57a8.52,8.52,0,0,0-6.31-2.8h-.23l-124.26,3.47-88-55.86a30.48,30.48,0,0,0-16-4.72L748.45,130.88c-1.53-.13-3.09-.19-4.62-.19a54.33,54.33,0,0,0-22.15,4.68l-77,34a40.74,40.74,0,0,1-29.85,1.24c-23.3-8-58.08-21.45-62.55-23.9L467.53,71.49l-.23-.21-.25-.17a30.19,30.19,0,0,0-17.2-5.35H368.61L199.32,9.1a8.89,8.89,0,0,0-2.1-.42L73.41,0l-.59,0Z"/></g></g></svg>