<svg xmlns="http://www.w3.org/2000/svg" viewBox="0 0 1269.95 332"><defs><style>.cls-1{fill:#67a677;}.cls-2{fill:#fff;}</style></defs><title>Asset 7</title><g id="Layer_2" data-name="Layer 2"><g id="Mountains_2" data-name="Mountains 2"><path class="cls-1" d="M20.06,329.5c-8,0-14.64-4.64-16.86-11.83-2.08-6.74.41-13.5,6.49-17.65l33.17-22.65a18,18,0,0,1,4.29-2.15L147.9,240.54a12.67,12.67,0,0,0,4.91-3.07l57.3-58.26a18.19,18.19,0,0,1,12.93-5.3h.49l106.83,2.75h.36a13.43,13.43,0,0,0,6.79-1.81l79.11-46.14A27.55,27.55,0,0,1,430.39,125L573.7,113.85c1.69-.13,3.4-.2,5.09-.2a64.43,64.43,0,0,1,24.41,4.75l64.47,26.21A56.2,56.2,0,0,0,706,146c23.11-7.49,51.11-17.53,54.08-19.19L839.1,62.29l.13-.08A27.37,27.37,0,0,1,853.91,58h73.77a13.73,13.73,0,0,0,4-.61L1086,10a18.44,18.44,0,0,1,4.29-.79l102.91-6.62c.4,0,.81,0,1.22,0,8.52,0,15.78,5.68,17.25,13.5l55.55,294.35a15.5,15.5,0,0,1-3.39,12.8,17.9,17.9,0,0,1-13.88,6.35Z"/><path class="cls-2" d="M1194.39,5c7.25,0,13.54,4.8,14.8,11.46l55.54,294.36c1.6,8.45-5.48,16.18-14.81,16.18H20.06c-14.48,0-20.59-17-9-24.92l33.17-22.65A15.34,15.34,0,0,1,48,277.59L148.71,242.9a15,15,0,0,0,5.88-3.67L211.89,181A15.64,15.64,0,0,1,223,176.41h.42l106.84,2.75h.42a16,16,0,0,0,8-2.15l79.11-46.14a25.08,25.08,0,0,1,12.61-3.37l143.4-11.17c1.64-.12,3.27-.19,4.9-.19a62.47,62.47,0,0,1,23.47,4.56l64.47,26.22a58.74,58.74,0,0,0,40,1.44c21.63-7,52-17.77,54.75-19.51l79.08-64.54a25.05,25.05,0,0,1,13.35-3.81h73.77a16,16,0,0,0,4.77-.72L1086.7,12.34a16.27,16.27,0,0,1,3.72-.69L1193.33,5c.35,0,.7,0,1.06,0m0-5c-.46,0-.93,0-1.38,0L1090.1,6.66a21.23,21.23,0,0,0-4.87.9L931,55a11.09,11.09,0,0,1-3.3.5H853.91a29.8,29.8,0,0,0-16,4.59l-.26.16-.23.19-78.73,64.24c-3.89,1.93-31.44,11.78-53.48,18.92a53.71,53.71,0,0,1-36.57-1.31l-64.48-26.22a67,67,0,0,0-25.35-4.93c-1.76,0-3.53.07-5.28.21L430.29,122.51a30,30,0,0,0-14.93,4L336.25,172.7a10.89,10.89,0,0,1-5.53,1.47h-.29l-106.84-2.75H223a20.7,20.7,0,0,0-14.71,6.05L151,235.72a10.27,10.27,0,0,1-3.94,2.45L46.33,272.86a20.63,20.63,0,0,0-4.88,2.44L8.28,298C1.37,302.68-1.56,310.7.82,318.4,3.33,326.54,11.06,332,20.06,332H1249.92a20.41,20.41,0,0,0,15.81-7.26,18,18,0,0,0,3.91-14.85L1214.1,15.53c-1.7-9-10-15.53-19.71-15.53Z"/></g></g></svg>