<svg xmlns="http://www.w3.org/2000/svg" viewBox="0 0 1619.31 508"><defs><style>.cls-1{fill:#35495e;}.cls-2{fill:#fff;}</style></defs><title>Asset 8</title><g id="Layer_2" data-name="Layer 2"><g id="Mountains_2" data-name="Mountains 2"><path class="cls-1" d="M24.23,505.5c-9.1,0-16.82-5.76-20.16-15-3-8.45-2-20.37,7.12-27.93l42.36-35a21.48,21.48,0,0,1,5.35-3.24l128.69-53.64a16.89,16.89,0,0,0,6.54-4.95l73.18-90.11a20.91,20.91,0,0,1,16.18-8h.62l136.46,4.25H421a15.36,15.36,0,0,0,8.85-2.87l101-71.37A30.35,30.35,0,0,1,548.34,192L731.4,174.71c2.15-.2,4.33-.3,6.49-.3a69.9,69.9,0,0,1,31.07,7.3l82.36,40.55a60.36,60.36,0,0,0,49.07,2.15c29.75-11.68,65.63-27.28,69.21-29.76l101-99.79.13-.1a30.33,30.33,0,0,1,18.57-6.41h94.23a14.87,14.87,0,0,0,5.22-.95l197-73.4a19.94,19.94,0,0,1,5.43-1.2L1522.63,2.56c.51,0,1-.06,1.55-.06,10.59,0,19.58,8.34,21.37,19.84l70.94,455.25a25.25,25.25,0,0,1-5.6,20.42,20.6,20.6,0,0,1-15.79,7.49Z"/><path class="cls-2" d="M1524.17,5c9.27,0,17.3,7.42,18.91,17.72L1614,478c2,13.07-7,25-18.92,25H24.23c-18.5,0-26.3-26.26-11.45-38.53l42.37-35a18.69,18.69,0,0,1,4.71-2.85l128.7-53.65a19.17,19.17,0,0,0,7.51-5.68l73.18-90.1a18.39,18.39,0,0,1,14.24-7H284l136.46,4.26H421a17.83,17.83,0,0,0,10.28-3.32l101.05-71.37a27.87,27.87,0,0,1,16.11-5.21L731.63,177.2c2.09-.19,4.17-.29,6.26-.29a67.74,67.74,0,0,1,30,7.05l82.35,40.55a63.55,63.55,0,0,0,28.09,6.6,62.83,62.83,0,0,0,23-4.38c27.62-10.84,66.4-27.48,69.92-30.18l101-99.81a28,28,0,0,1,17-5.89h94.23a17.45,17.45,0,0,0,6.09-1.11l197-73.4a17.82,17.82,0,0,1,4.75-1.05L1522.82,5.05c.45,0,.91,0,1.35,0m0-5c-.57,0-1.16,0-1.74.07L1391,10.31a22.3,22.3,0,0,0-6.12,1.35l-197,73.4a12.53,12.53,0,0,1-4.35.79h-94.23a32.84,32.84,0,0,0-20.09,6.92l-.25.2-.22.22L968,192.68c-4.49,2.81-39.92,18.16-68.55,29.4A57.87,57.87,0,0,1,852.42,220l-82.36-40.55a72.21,72.21,0,0,0-32.17-7.56c-2.24,0-4.5.1-6.73.31L548.22,189.47a32.89,32.89,0,0,0-18.75,6.13L428.43,267a12.79,12.79,0,0,1-7.4,2.41h-.39l-136.45-4.25h-.7A23.41,23.41,0,0,0,265.37,274L192.19,364.1a14.52,14.52,0,0,1-5.56,4.22L57.94,422a23.7,23.7,0,0,0-6,3.62l-42.36,35c-8.73,7.22-11.89,19.56-7.88,30.71C5.42,501.61,14.05,508,24.23,508H1595.1a23.06,23.06,0,0,0,17.69-8.37A27.76,27.76,0,0,0,1619,477.2L1548,22C1546,9.23,1536,0,1524.17,0Z"/></g></g></svg>